<svg xmlns="http://www.w3.org/2000/svg" xmlns:xlink="http://www.w3.org/1999/xlink" width="500" zoomAndPan="magnify" viewBox="0 0 375 374.999991" height="500" preserveAspectRatio="xMidYMid meet" version="1.2"><defs><clipPath id="633eb3003f"><path d="M 187.5 0 C 83.945312 0 0 83.945312 0 187.5 C 0 291.054688 83.945312 375 187.5 375 C 291.054688 375 375 291.054688 375 187.5 C 375 83.945312 291.054688 0 187.5 0 Z M 187.5 0 "/></clipPath><clipPath id="7a912fbbeb"><path d="M 66.582031 66.582031 L 227.480469 66.582031 L 227.480469 227.480469 L 66.582031 227.480469 Z M 66.582031 66.582031 "/></clipPath><clipPath id="8f78f10954"><path d="M 66.582031 66.582031 L 226 66.582031 L 226 226 L 66.582031 226 Z M 66.582031 66.582031 "/></clipPath><clipPath id="6c7a07278e"><path d="M 147.195312 147.195312 L 308.089844 147.195312 L 308.089844 308.089844 L 147.195312 308.089844 Z M 147.195312 147.195312 "/></clipPath><clipPath id="e431a5676c"><path d="M 147.195312 147.195312 L 307 147.195312 L 307 307 L 147.195312 307 Z M 147.195312 147.195312 "/></clipPath></defs><g id="4753e11f7c"><g clip-rule="nonzero" clip-path="url(#633eb3003f)"><rect x="0" width="375" y="0" height="374.999991" style="fill:#eab308;fill-opacity:1;stroke:none;"/></g><g clip-rule="nonzero" clip-path="url(#7a912fbbeb)"><path style=" stroke:none;fill-rule:evenodd;fill:#005693;fill-opacity:1;" d="M 147.792969 227.414062 L 69.953125 227.40625 L 66.578125 225.675781 L 73.390625 70.054688 L 225.625 66.628906 L 227.355469 69.066406 L 227.464844 148.011719 L 147.886719 148.117188 Z M 147.792969 227.414062 "/></g><g clip-rule="nonzero" clip-path="url(#8f78f10954)"><path style=" stroke:none;fill-rule:evenodd;fill:#4383ee;fill-opacity:1;" d="M 146.09375 225.675781 L 66.570312 225.675781 L 66.570312 66.628906 L 225.617188 66.628906 L 225.617188 146.152344 L 146.09375 146.152344 Z M 146.09375 225.675781 "/></g><path style=" stroke:none;fill-rule:evenodd;fill:#005693;fill-opacity:1;" d="M 132.683594 185.90625 C 132.683594 199.945312 121.304688 211.324219 107.265625 211.324219 C 93.230469 211.324219 81.851562 199.945312 81.851562 185.90625 C 81.851562 171.871094 93.230469 160.492188 107.265625 160.492188 C 121.304688 160.492188 132.683594 171.871094 132.683594 185.90625 Z M 212.203125 106.386719 C 212.203125 120.421875 200.828125 131.800781 186.789062 131.800781 C 172.753906 131.800781 161.375 120.421875 161.375 106.386719 C 161.375 92.347656 172.753906 80.96875 186.789062 80.96875 C 200.828125 80.96875 212.203125 92.347656 212.203125 106.386719 Z M 132.683594 106.386719 C 132.683594 120.421875 121.304688 131.800781 107.265625 131.800781 C 93.230469 131.800781 81.851562 120.421875 81.851562 106.386719 C 81.851562 92.347656 93.230469 80.96875 107.265625 80.96875 C 121.304688 80.96875 132.683594 92.347656 132.683594 106.386719 Z M 132.683594 106.386719 "/><path style=" stroke:none;fill-rule:evenodd;fill:#1375bc;fill-opacity:1;" d="M 130.824219 184.050781 C 130.824219 198.085938 119.445312 209.464844 105.410156 209.464844 C 91.371094 209.464844 79.992188 198.085938 79.992188 184.050781 C 79.992188 170.011719 91.371094 158.632812 105.410156 158.632812 C 119.445312 158.632812 130.824219 170.011719 130.824219 184.050781 Z M 210.347656 104.527344 C 210.347656 118.5625 198.96875 129.941406 184.929688 129.941406 C 170.894531 129.941406 159.515625 118.5625 159.515625 104.527344 C 159.515625 90.488281 170.894531 79.109375 184.929688 79.109375 C 198.96875 79.109375 210.347656 90.488281 210.347656 104.527344 Z M 130.824219 104.527344 C 130.824219 118.5625 119.445312 129.941406 105.410156 129.941406 C 91.371094 129.941406 79.992188 118.5625 79.992188 104.527344 C 79.992188 90.488281 91.371094 79.109375 105.410156 79.109375 C 119.445312 79.109375 130.824219 90.488281 130.824219 104.527344 Z M 130.824219 104.527344 "/><path style=" stroke:none;fill-rule:evenodd;fill:#ffffff;fill-opacity:0.5;" d="M 81.085938 105.625 C 81.085938 112.359375 83.710938 118.488281 88 123.035156 C 83.074219 118.402344 79.996094 111.824219 79.996094 104.527344 C 79.996094 90.492188 91.371094 79.117188 105.410156 79.117188 C 112.703125 79.117188 119.273438 82.191406 123.914062 87.121094 C 119.359375 82.832031 113.238281 80.203125 106.496094 80.203125 C 92.460938 80.203125 81.085938 91.589844 81.085938 105.625 Z M 81.085938 185.140625 C 81.085938 191.882812 83.710938 198.011719 88 202.558594 C 83.074219 197.925781 79.996094 191.347656 79.996094 184.050781 C 79.996094 170.011719 91.371094 158.636719 105.410156 158.636719 C 112.703125 158.636719 119.273438 161.714844 123.914062 166.640625 C 119.359375 162.355469 113.238281 159.726562 106.496094 159.726562 C 92.460938 159.726562 81.085938 171.113281 81.085938 185.140625 Z M 160.609375 105.625 C 160.609375 112.359375 163.234375 118.488281 167.523438 123.035156 C 162.597656 118.402344 159.519531 111.824219 159.519531 104.527344 C 159.519531 90.492188 170.894531 79.117188 184.929688 79.117188 C 192.226562 79.117188 198.796875 82.191406 203.4375 87.121094 C 198.882812 82.832031 192.761719 80.203125 186.019531 80.203125 C 171.984375 80.203125 160.609375 91.589844 160.609375 105.625 Z M 160.609375 105.625 "/><g clip-rule="nonzero" clip-path="url(#6c7a07278e)"><path style=" stroke:none;fill-rule:nonzero;fill:#810814;fill-opacity:1;" d="M 308.089844 308.101562 L 150.566406 308.101562 L 147.191406 306.367188 L 154.007812 150.625 L 306.359375 147.199219 L 308.089844 149.640625 Z M 308.089844 308.101562 "/></g><g clip-rule="nonzero" clip-path="url(#e431a5676c)"><path style=" stroke:none;fill-rule:evenodd;fill:#fa3d3d;fill-opacity:1;" d="M 147.183594 147.199219 L 306.351562 147.199219 L 306.351562 306.367188 L 147.183594 306.367188 Z M 147.183594 147.199219 "/></g><path style=" stroke:none;fill-rule:evenodd;fill:#810814;fill-opacity:1;" d="M 292.929688 266.570312 C 292.929688 280.617188 281.542969 292.003906 267.492188 292.003906 C 253.445312 292.003906 242.058594 280.617188 242.058594 266.570312 C 242.058594 252.523438 253.445312 241.136719 267.492188 241.136719 C 281.542969 241.136719 292.929688 252.523438 292.929688 266.570312 Z M 213.34375 266.570312 C 213.34375 280.617188 201.957031 292.003906 187.910156 292.003906 C 173.863281 292.003906 162.476562 280.617188 162.476562 266.570312 C 162.476562 252.523438 173.863281 241.136719 187.910156 241.136719 C 201.957031 241.136719 213.34375 252.523438 213.34375 266.570312 Z M 292.929688 186.984375 C 292.929688 201.035156 281.542969 212.421875 267.492188 212.421875 C 253.445312 212.421875 242.058594 201.035156 242.058594 186.984375 C 242.058594 172.9375 253.445312 161.550781 267.492188 161.550781 C 281.542969 161.550781 292.929688 172.9375 292.929688 186.984375 Z M 213.34375 186.984375 C 213.34375 201.035156 201.957031 212.421875 187.910156 212.421875 C 173.863281 212.421875 162.476562 201.035156 162.476562 186.984375 C 162.476562 172.9375 173.863281 161.550781 187.910156 161.550781 C 201.957031 161.550781 213.34375 172.9375 213.34375 186.984375 Z M 213.34375 186.984375 "/><path style=" stroke:none;fill-rule:evenodd;fill:#fa3d3d;fill-opacity:1;" d="M 291.070312 264.710938 C 291.070312 278.757812 279.679688 290.144531 265.632812 290.144531 C 251.585938 290.144531 240.199219 278.757812 240.199219 264.710938 C 240.199219 250.664062 251.585938 239.273438 265.632812 239.273438 C 279.679688 239.273438 291.070312 250.664062 291.070312 264.710938 Z M 211.484375 264.710938 C 211.484375 278.757812 200.097656 290.144531 186.050781 290.144531 C 172.003906 290.144531 160.617188 278.757812 160.617188 264.710938 C 160.617188 250.664062 172.003906 239.273438 186.050781 239.273438 C 200.097656 239.273438 211.484375 250.664062 211.484375 264.710938 Z M 291.070312 185.125 C 291.070312 199.171875 279.679688 210.5625 265.632812 210.5625 C 251.585938 210.5625 240.199219 199.171875 240.199219 185.125 C 240.199219 171.078125 251.585938 159.691406 265.632812 159.691406 C 279.679688 159.691406 291.070312 171.078125 291.070312 185.125 Z M 211.484375 185.125 C 211.484375 199.171875 200.097656 210.5625 186.050781 210.5625 C 172.003906 210.5625 160.617188 199.171875 160.617188 185.125 C 160.617188 171.078125 172.003906 159.691406 186.050781 159.691406 C 200.097656 159.691406 211.484375 171.078125 211.484375 185.125 Z M 211.484375 185.125 "/><path style=" stroke:none;fill-rule:evenodd;fill:#ffffff;fill-opacity:0.5;" d="M 241.292969 265.800781 C 241.292969 272.550781 243.921875 278.683594 248.210938 283.230469 C 243.28125 278.597656 240.203125 272.011719 240.203125 264.710938 C 240.203125 250.664062 251.585938 239.28125 265.632812 239.28125 C 272.933594 239.28125 279.507812 242.359375 284.15625 247.289062 C 279.597656 243 273.472656 240.371094 266.722656 240.371094 C 252.675781 240.371094 241.292969 251.761719 241.292969 265.800781 Z M 161.707031 186.226562 C 161.707031 192.964844 164.335938 199.097656 168.628906 203.648438 C 163.699219 199.011719 160.617188 192.429688 160.617188 185.128906 C 160.617188 171.078125 172 159.695312 186.050781 159.695312 C 193.351562 159.695312 199.925781 162.777344 204.570312 167.707031 C 200.011719 163.414062 193.886719 160.785156 187.140625 160.785156 C 173.089844 160.785156 161.707031 172.179688 161.707031 186.226562 Z M 161.707031 265.800781 C 161.707031 272.550781 164.335938 278.683594 168.628906 283.230469 C 163.699219 278.597656 160.617188 272.011719 160.617188 264.710938 C 160.617188 250.664062 172 239.28125 186.050781 239.28125 C 193.351562 239.28125 199.925781 242.359375 204.570312 247.289062 C 200.011719 243 193.886719 240.371094 187.140625 240.371094 C 173.089844 240.371094 161.707031 251.761719 161.707031 265.800781 Z M 241.292969 186.226562 C 241.292969 192.964844 243.921875 199.097656 248.210938 203.648438 C 243.28125 199.011719 240.203125 192.429688 240.203125 185.128906 C 240.203125 171.078125 251.585938 159.695312 265.632812 159.695312 C 272.933594 159.695312 279.507812 162.777344 284.15625 167.707031 C 279.597656 163.414062 273.472656 160.785156 266.722656 160.785156 C 252.675781 160.785156 241.292969 172.179688 241.292969 186.226562 Z M 241.292969 186.226562 "/></g></svg>